<?xml version="1.0" encoding="UTF-8" standalone="no"?>
<!--	Created with Inkscape (http://www.inkscape.org/)
	Reorganised with TEXT EDITOR (gedit or Bluefish under Ubuntu) ( Use tab's lenght : 6 ).
┌───────────────────────────────────────────────────────────────────────────────────────────────────────
│	This file represents the french linux alphanumerical keyboard (version 4):
│	- it uses style sheet (css) [see details at section "style"]
│	- it displays the standard pad
│	- and optionnaly
│		* for some keys : the draw and/or the text (↹ and/or TAB …)
│		* the Linux additional glyphs
│	- the lower case of "standard" letters are not displayed.
│	- keys and inscriptions are geographically referenced : "kb" + line(number) + range(letter)
└───────────────────────────────────────────────────────────────────────────────────────────────────────
	W3C validation
┌───────────────────────────────────────────────────────────────────────────────────────────────────────
│	Validation Output: 2 Warnings
│
│	Below is a list of the warning message(s) produced when checking your document.
│
│	Info : The Content-Type was image/svg+xml. Using the XML parser (not resolving external entities).
│
│	⚠ Line 45, Column 26: This validator does not validate Inkscape extensions properly.
│	  Inkscape-specific errors may go unnoticed.
│			width="810" height="276">
│	⚠ Consider adding a lang attribute to the html start tag to declare the language of this document.
│
│	Congratulations
│
│	The uploaded document "KB_France linux.svg" was successfully checked as SVG 1.1 + XHTML + MathML 3.0.
│	This means that the resource in question identified itself as "SVG 1.1 + XHTML + MathML 3.0" and that we successfully performed
│	a formal validation of it. The parser implementations we used for this check are based on Compound XML and libxml2 (XML).
└───────────────────────────────────────────────────────────────────────────────────────────────────────── -->

<svg
   id="svg2"
   inkscape:version="1.1.2 (0a00cf5339, 2022-02-04)"
   sodipodi:version="0.32"
   viewBox="0 0 810 276"
   version="1.1"
   sodipodi:docname="iso-azerty.svg"
   xmlns:inkscape="http://www.inkscape.org/namespaces/inkscape"
   xmlns:sodipodi="http://sodipodi.sourceforge.net/DTD/sodipodi-0.dtd"
   xmlns:xlink="http://www.w3.org/1999/xlink"
   xmlns="http://www.w3.org/2000/svg"
   xmlns:svg="http://www.w3.org/2000/svg"
   xmlns:rdf="http://www.w3.org/1999/02/22-rdf-syntax-ns#"
   xmlns:cc="http://creativecommons.org/ns#"
   xmlns:dc="http://purl.org/dc/elements/1.1/">
  <sodipodi:namedview
     id="namedview325"
     pagecolor="#ffffff"
     bordercolor="#666666"
     borderopacity="1.0"
     inkscape:pageshadow="2"
     inkscape:pageopacity="0.0"
     inkscape:pagecheckerboard="0"
     showgrid="false"
     inkscape:zoom="2.3936874"
     inkscape:cx="530.3533"
     inkscape:cy="184.44347"
     inkscape:window-width="1920"
     inkscape:window-height="1011"
     inkscape:window-x="0"
     inkscape:window-y="0"
     inkscape:window-maximized="1"
     inkscape:current-layer="key-slots" />
  <title
     id="title2">KB_France linux</title>
  <defs
     id="defs4">
    <marker
       id="TriangleOutM"
       inkscape:stockid="TriangleOutM"
       refX="0"
       refY="0"
       orient="auto"
       style="overflow:visible">
      <path
         id="path4356"
         style="fill-rule:evenodd;stroke:Black;stroke-width:1pt;marker-start:none"
         d="M 5.77,0 -2.88,5 -2.88,-5 5.77,0 z"
         transform="scale(0.4,0.4)" />
    </marker>
    <style
       id="style6"
       type="text/css"><!--
┌────────────────────────────────────────────────────────────────────────────────────────────────────────
│ General  : «#» style for «id» ; «.» class style (for particular style in group)
│	DRAW styles : K_ : particular key style | D_ : circle for dead keys
│	TEXT styles : «text» : common style for all text | T_ : text style | _L : large ; _s : small
└────────────────────────────────────────────────────────────────────────────────────────────────────────-->
<![CDATA[
#key-slots { 
    stroke:red;
}
	#T_others		 { font-size:16px; text-align:right ;text-anchor:start ; }
	#T_alterninsc	 { font-size:14px; fill:DimGray	;fill-opacity:1 ;stroke:none; text-align:right ;text-anchor:start ; }
	#T_stdletters	 { font-size:21px; fill:Black		;fill-opacity:1 ;stroke:none; text-align:center;text-anchor:middle; }
	#T_stdspecial	 { font-size:18px; fill:Black		;fill-opacity:1 ;stroke:none; text-align:center;text-anchor:middle; }
	#T_digits		 { font-size:18px; fill:Silver		;fill-opacity:1 ;stroke:none; text-align:center;text-anchor:middle; }
	#T_AltGr		 { font-size:18px; fill:Blue		;fill-opacity:1 ;stroke:none; text-align:center;text-anchor:middle; }
	#T_AltGrSh		 { font-size:18px; fill:DodgerBlue	;fill-opacity:1 ;stroke:none; text-align:center;text-anchor:middle; }
	.T_UpAltGr		 { font-size:18px; fill:SkyBlue	; }
	.T_DeadKey		 { font-size:21px; fill:Red		;font-family:sans ; }
	.O_DeadKey		 { font-size:16px; fill:Grey		;font-family:sans ; }
	#T_Lx_AltGr		 { font-size:18px; fill:Purple		;fill-opacity:1 ;stroke:none; text-align:center;text-anchor:middle; }
	#T_Lx_AltGrSh	 { font-size:18px; fill:BlueViolet	;fill-opacity:1 ;stroke:none; text-align:center;text-anchor:middle; }
	.T_Lx_UpAltGr	 { font-size:18px; fill:Thistle	; }
	.T_Lx_DeadKey	 { font-size:21px; fill:OrangeRed	;fill-opacity:1 ;stroke:darkorange;stroke-width:0.6; }
	.T_size_s		 { font-size:12px; fill:Black		;fill-opacity:1 ;stroke:none; text-align:right ;text-anchor:start ; }
	.T_size_L		 { font-size:21px; }
	#GlyphKey		 { fill:White	;stroke:Grey	;stroke-width:1; }
	#ModifKey		 { fill:Gainsboro  ;stroke:Grey	;stroke-width:1; }
	#OtherKey		 { fill:Silver	;stroke:Grey	;stroke-width:1; }
	.K_AltGr		 { fill:PowderBlue	;stroke:Grey	;stroke-width:1; }
]]></style>
  </defs>
  <!-- ========  Keyboard background ======== -->
  <g
     inkscape:groupmode="layer"
     id="Background"
     inkscape:label="Background"
     sodipodi:insensitive="true">
    <rect
       id="Bckgrd"
       x="0"
       y="0"
       width="810"
       height="276"
       style="fill:#f5deb3;stroke:none" />
  </g>
  <!-- ========	 Keys	======== -->
  <g
     inkscape:groupmode="layer"
     id="Keys"
     inkscape:label="Keys"
     style="display:inline"
     sodipodi:insensitive="true">
    <g
       id="GlyphKey">
      <!-- Keys dimentions : ↔ 48 x ↕ 48 ; deplacement ↦ 54 , ↧ 54 -->
      <!-- Num keys /- Standard letters keys / Specials glyphs keys / Ponctuation keys -->
      <rect
         id="K_kb2a"
         x="6"
         y="6"
         width="48"
         height="48"
         rx="6"
         ry="6" />
      <use
         id="K_kb2b"
         xlink:href="#K_kb2a"
         transform="translate(54)"
         x="0"
         y="0"
         width="100%"
         height="100%" />
      <use
         id="K_kb2c"
         xlink:href="#K_kb2a"
         transform="translate(108)"
         x="0"
         y="0"
         width="100%"
         height="100%" />
      <use
         id="K_kb2d"
         xlink:href="#K_kb2a"
         transform="translate(162)"
         x="0"
         y="0"
         width="100%"
         height="100%" />
      <use
         id="K_kb2e"
         xlink:href="#K_kb2a"
         transform="translate(216)"
         x="0"
         y="0"
         width="100%"
         height="100%" />
      <use
         id="K_kb2f"
         xlink:href="#K_kb2a"
         transform="translate(270)"
         x="0"
         y="0"
         width="100%"
         height="100%" />
      <use
         id="K_kb2g"
         xlink:href="#K_kb2a"
         transform="translate(324)"
         x="0"
         y="0"
         width="100%"
         height="100%" />
      <use
         id="K_kb2h"
         xlink:href="#K_kb2a"
         transform="translate(378)"
         x="0"
         y="0"
         width="100%"
         height="100%" />
      <use
         id="K_kb2i"
         xlink:href="#K_kb2a"
         transform="translate(432)"
         x="0"
         y="0"
         width="100%"
         height="100%" />
      <use
         id="K_kb2j"
         xlink:href="#K_kb2a"
         transform="translate(486)"
         x="0"
         y="0"
         width="100%"
         height="100%" />
      <use
         id="K_kb2k"
         xlink:href="#K_kb2a"
         transform="translate(540)"
         x="0"
         y="0"
         width="100%"
         height="100%" />
      <use
         id="K_kb2l"
         xlink:href="#K_kb2a"
         transform="translate(594)"
         x="0"
         y="0"
         width="100%"
         height="100%" />
      <use
         id="K_kb2m"
         xlink:href="#K_kb2a"
         transform="translate(648)"
         x="0"
         y="0"
         width="100%"
         height="100%" />
      <use
         id="K_kb3b"
         xlink:href="#K_kb2a"
         transform="translate(80,54)"
         x="0"
         y="0"
         width="100%"
         height="100%" />
      <use
         id="K_kb3c"
         xlink:href="#K_kb2a"
         transform="translate(134,54)"
         x="0"
         y="0"
         width="100%"
         height="100%" />
      <use
         id="K_kb3d"
         xlink:href="#K_kb2a"
         transform="translate(188,54)"
         x="0"
         y="0"
         width="100%"
         height="100%" />
      <use
         id="K_kb3e"
         xlink:href="#K_kb2a"
         transform="translate(242,54)"
         x="0"
         y="0"
         width="100%"
         height="100%" />
      <use
         id="K_kb3f"
         xlink:href="#K_kb2a"
         transform="translate(296,54)"
         x="0"
         y="0"
         width="100%"
         height="100%" />
      <use
         id="K_kb3g"
         xlink:href="#K_kb2a"
         transform="translate(350,54)"
         x="0"
         y="0"
         width="100%"
         height="100%" />
      <use
         id="K_kb3h"
         xlink:href="#K_kb2a"
         transform="translate(404,54)"
         x="0"
         y="0"
         width="100%"
         height="100%" />
      <use
         id="K_kb3i"
         xlink:href="#K_kb2a"
         transform="translate(458,54)"
         x="0"
         y="0"
         width="100%"
         height="100%" />
      <use
         id="K_kb3j"
         xlink:href="#K_kb2a"
         transform="translate(512,54)"
         x="0"
         y="0"
         width="100%"
         height="100%" />
      <use
         id="K_kb3k"
         xlink:href="#K_kb2a"
         transform="translate(566,54)"
         x="0"
         y="0"
         width="100%"
         height="100%" />
      <use
         id="K_kb3l"
         xlink:href="#K_kb2a"
         transform="translate(620,54)"
         x="0"
         y="0"
         width="100%"
         height="100%" />
      <use
         id="K_kb3m"
         xlink:href="#K_kb2a"
         transform="translate(674,54)"
         x="0"
         y="0"
         width="100%"
         height="100%" />
      <use
         id="K_kb4b"
         xlink:href="#K_kb2a"
         transform="translate(96,108)"
         x="0"
         y="0"
         width="100%"
         height="100%" />
      <use
         id="K_kb4c"
         xlink:href="#K_kb2a"
         transform="translate(150,108)"
         x="0"
         y="0"
         width="100%"
         height="100%" />
      <use
         id="K_kb4d"
         xlink:href="#K_kb2a"
         transform="translate(204,108)"
         x="0"
         y="0"
         width="100%"
         height="100%" />
      <use
         id="K_kb4e"
         xlink:href="#K_kb2a"
         transform="translate(258,108)"
         x="0"
         y="0"
         width="100%"
         height="100%" />
      <use
         id="K_kb4f"
         xlink:href="#K_kb2a"
         transform="translate(312,108)"
         x="0"
         y="0"
         width="100%"
         height="100%" />
      <use
         id="K_kb4g"
         xlink:href="#K_kb2a"
         transform="translate(366,108)"
         x="0"
         y="0"
         width="100%"
         height="100%" />
      <use
         id="K_kb4h"
         xlink:href="#K_kb2a"
         transform="translate(420,108)"
         x="0"
         y="0"
         width="100%"
         height="100%" />
      <use
         id="K_kb4i"
         xlink:href="#K_kb2a"
         transform="translate(474,108)"
         x="0"
         y="0"
         width="100%"
         height="100%" />
      <use
         id="K_kb4j"
         xlink:href="#K_kb2a"
         transform="translate(528,108)"
         x="0"
         y="0"
         width="100%"
         height="100%" />
      <use
         id="K_kb4k"
         xlink:href="#K_kb2a"
         transform="translate(582,108)"
         x="0"
         y="0"
         width="100%"
         height="100%" />
      <use
         id="K_kb4l"
         xlink:href="#K_kb2a"
         transform="translate(636,108)"
         x="0"
         y="0"
         width="100%"
         height="100%" />
      <use
         id="K_kb4m"
         xlink:href="#K_kb2a"
         transform="translate(690,108)"
         x="0"
         y="0"
         width="100%"
         height="100%" />
      <use
         id="K_kb5b"
         xlink:href="#K_kb2a"
         transform="translate(62,162)"
         x="0"
         y="0"
         width="100%"
         height="100%" />
      <use
         id="K_kb5c"
         xlink:href="#K_kb2a"
         transform="translate(116,162)"
         x="0"
         y="0"
         width="100%"
         height="100%" />
      <use
         id="K_kb5d"
         xlink:href="#K_kb2a"
         transform="translate(170,162)"
         x="0"
         y="0"
         width="100%"
         height="100%" />
      <use
         id="K_kb5e"
         xlink:href="#K_kb2a"
         transform="translate(224,162)"
         x="0"
         y="0"
         width="100%"
         height="100%" />
      <use
         id="K_kb5f"
         xlink:href="#K_kb2a"
         transform="translate(278,162)"
         x="0"
         y="0"
         width="100%"
         height="100%" />
      <use
         id="K_kb5g"
         xlink:href="#K_kb2a"
         transform="translate(332,162)"
         x="0"
         y="0"
         width="100%"
         height="100%" />
      <use
         id="K_kb5h"
         xlink:href="#K_kb2a"
         transform="translate(386,162)"
         x="0"
         y="0"
         width="100%"
         height="100%" />
      <use
         id="K_kb5i"
         xlink:href="#K_kb2a"
         transform="translate(440,162)"
         x="0"
         y="0"
         width="100%"
         height="100%" />
      <use
         id="K_kb5j"
         xlink:href="#K_kb2a"
         transform="translate(494,162)"
         x="0"
         y="0"
         width="100%"
         height="100%" />
      <use
         id="K_kb5k"
         xlink:href="#K_kb2a"
         transform="translate(548,162)"
         x="0"
         y="0"
         width="100%"
         height="100%" />
      <use
         id="K_kb5l"
         xlink:href="#K_kb2a"
         transform="translate(602,162)"
         x="0"
         y="0"
         width="100%"
         height="100%" />
      <rect
         id="K_kb6d"
         x="192"
         y="222"
         width="364"
         height="48"
         rx="6"
         ry="6" />
    </g>
    <!-- Modification keys -->
    <g
       id="ModifKey">
      <rect
         id="K_kb4a"
         x="6"
         y="114"
         width="90"
         height="48"
         rx="6"
         ry="6" />
      <rect
         id="K_kb5a"
         x="6"
         y="168"
         width="56"
         height="48"
         rx="6"
         ry="6" />
      <rect
         id="K_kb5m"
         x="662"
         y="168"
         width="142"
         height="48"
         rx="6"
         ry="6" />
      <rect
         id="K_kb6k"
         x="562"
         y="222"
         width="56"
         height="48"
         rx="6"
         ry="6"
         class="K_AltGr" />
    </g>
    <!-- Others keys  -->
    <g
       id="OtherKey">
      <!-- Backspace  -->
      <rect
         id="K_kb2n"
         x="708"
         y="6"
         width="96"
         height="48"
         rx="6"
         ry="6" />
      <!-- Tabulation -->
      <rect
         id="K_kb3a"
         x="6"
         y="60"
         width="74"
         height="48"
         rx="6"
         ry="6" />
      <!-- Enter key -->
      <path
         id="K_kb3n"
         d="m 740.16,60.01 c -3.44,0 -5.94,2.56 -5.94,5.24 l -0.06,36.88 c 0,3.31 2.69,6.37 6,6.37 h 3.99 c 3.08,0 5.7,3.04 5.7,5.59 0,2.55 0.24,29.16 0.24,42.44 0,1.99 2.02,5.97 6,5.97 13.94,0 27.88,0 41.82,0 3.98,0 5.97,-3.98 5.97,-5.97 0,-27.22 0,-63.31 0,-90.53 0,-1.99 -1.99,-6 -5.97,-6 z" />
      <!-- Ctrl 1 -->
      <rect
         id="K_kb6a"
         x="6"
         y="222"
         width="56"
         height="48"
         rx="6"
         ry="6" />
      <!-- Logo 1 -->
      <rect
         id="K_kb6b"
         x="68"
         y="222"
         width="56"
         height="48"
         rx="6"
         ry="6" />
      <!-- Alt	-->
      <rect
         id="K_kb6c"
         x="130"
         y="222"
         width="56"
         height="48"
         rx="6"
         ry="6" />
      <!-- Logo 2 -->
      <rect
         id="K_kb6l"
         x="624"
         y="222"
         width="56"
         height="48"
         rx="6"
         ry="6" />
      <!-- Menu   -->
      <rect
         id="K_kb6m"
         x="686"
         y="222"
         width="56"
         height="48"
         rx="6"
         ry="6" />
      <!-- Ctrl 2 -->
      <rect
         id="K_kb6n"
         x="748"
         y="222"
         width="56"
         height="48"
         rx="6"
         ry="6" />
    </g>
  </g>
  <!-- ========	 Key signs	======== -->
  <g
     inkscape:groupmode="layer"
     id="DrawedInscr"
     inkscape:label="DrawedInscr"
     sodipodi:insensitive="true">
    <!--  Logo keys (super) : Tux -->
    <g
       id="S_kb6b">
      <path
         id="Tux_a"
         style="fill:#000000;stroke:none"
         d="m 105.81,252.42 c 0.54,-1.59 0.19,-3.48 -0.19,-4.99 -0.69,-2.65 -1.726,-3.25 -2.463,-4.2 -1.18,-1.47 -2.211,-3.36 -2.196,-4.42 0.113,-2.68 -0.114,-7.74 -4.838,-7.74 h -0.605 c -5.234,0.48 -3.571,6.08 -3.568,7.89 0,2.23 0.39,1.89 -1.027,3.86 -1.111,1.51 -1.418,1.36 -1.845,2.45 -0.189,0.46 -0.514,1.7 -0.937,2.72 -0.412,1.03 -1.777,2.46 -1.108,3.9 l 5.737,8.2 c 0.341,0 0.575,0 0.613,-0.57 h 2.661 2.475 c 0.473,0 1.1,-0.1 1.58,0.32 z" />
      <path
         id="Tux_b"
         style="fill:#ffffff;stroke:none"
         d="m 100.35,255.4 c -0.227,0.42 -2.377,2.19 -3.148,2.35 -4.316,0.94 -4.279,-0.38 -5.344,-1.36 0.699,0 1.145,-0.38 1.205,-0.65 0.227,-0.9 -0.638,-1.32 -1.999,-2.49 -0.877,-0.76 -1.209,-1.06 -1.674,-1.48 -0.378,-2.72 1.145,-5.06 1.916,-6.38 0.113,-1.85 1.107,-3.03 1.515,-3.63 0,-0.79 0,-1.17 0.189,-1.36 h 5.363 c 0,0 0.152,0 0.303,0.38 -0.114,0.64 1.429,1.85 1.436,4.12 0.877,0.37 2.476,3.81 1.618,7.29 z" />
      <ellipse
         id="Tux_c"
         rx="1.48"
         ry="1.9299999"
         cx="97.190002"
         cy="237.22"
         style="fill:#ffffff;stroke:none" />
      <path
         id="Tux_d"
         style="fill:#c0c0c0;stroke:none"
         d="m 98.57,236.6 c -0.452,-0.51 -0.833,-0.52 -1.4,-0.54 -0.525,0 -0.97,0.18 -1.314,0.29 0.34,-0.9 1.037,-1.07 1.33,-1.09 0.593,0 1.342,0.72 1.384,1.34 z" />
      <ellipse
         id="Tux_e"
         cx="93.459999"
         cy="237.14999"
         rx="1.0700001"
         ry="1.88"
         style="fill:#ffffff;stroke:none" />
      <path
         id="Tux_f"
         style="fill:#c0c0c0;stroke:none"
         d="m 92.433,236.66 c 0.227,-0.38 0.508,-0.57 0.938,-0.61 h 0.964 c -0.301,-0.71 -0.758,-0.82 -0.99,-0.79 -0.547,0.1 -0.853,0.9 -0.912,1.4 z" />
      <path
         id="Tux_g"
         style="fill:#a9a9a9;stroke:none"
         d="m 93.012,240.4 5.374,-0.21 c 0,0 0.14,0.21 0.291,0.58 0,0.42 0.155,0.54 0.495,1.15 -0.303,-0.38 -0.608,-0.62 -1.016,-0.58 -0.151,0 -1.349,0.91 -1.603,0.98 -0.302,0 -1.557,1.02 -1.889,1.02 -1.104,0 -0.985,-1.12 -1.841,-1.58 0,-0.8 0,-1.17 0.189,-1.36 z" />
      <path
         id="Tux_h"
         style="fill:#ffffff;stroke:none"
         d="m 89.849,245.84 c -0.567,0.83 -0.982,1.81 -1.27,2.8 -0.113,0.56 -0.151,1.17 -0.113,1.77 -0.113,0 -0.378,0 -0.302,0 0.08,0 0.378,0 0.378,0.38 0.151,0.46 0.548,0.8 0.941,1.06 -0.04,0 0,-0.38 -0.151,-0.45 -0.53,-0.38 -0.639,-1.02 -0.632,-1.63 0,-1.21 0.454,-2.38 1.017,-3.44 0.08,-0.38 0.302,-0.41 0.302,-0.68 -0.04,0 -0.08,0 -0.151,0 z" />
      <path
         id="Tux_i"
         style="fill:#ffffff;stroke:none"
         d="m 101.25,245.12 c 0.303,0.38 0.7,0.38 0.979,0.65 0.666,0.56 1.217,1.36 1.319,2.26 0.152,1.06 -0.189,2.12 -0.54,3.1 -0.544,0 -0.964,0.49 -1.33,0.87 -0.189,0.38 0.151,0 0.264,0 0.34,-0.38 0.665,-0.6 1.119,-0.57 0.623,0 1.274,0 1.844,0.38 0.11,0 0.11,0 0.11,0.38 -0.11,0.38 -0.26,0.49 -0.34,0.79 0.34,-0.37 0.6,-0.6 0.99,-0.75 0.11,0 -0.1,-0.38 -0.11,-0.38 -0.43,-0.53 -1.16,-0.57 -1.772,-0.6 -0.151,0 -0.265,0 -0.408,0 0.189,-0.84 0.566,-1.71 0.6,-2.57 -0.08,-1.29 -0.691,-2.54 -1.765,-3.22 -0.264,0 -0.578,-0.38 -0.884,-0.38 z" />
      <path
         id="Tux_j"
         style="fill:#c0c0c0;stroke:none"
         d="m 93.859,253.06 c -0.189,0 -0.265,-0.38 -0.265,-0.61 -0.07,-2 0.114,-4.3 0.152,-4.49 0,0 0.04,0 0.189,-0.38 h 0.189 c -0.08,0 -0.114,0 -0.114,0.38 0,0.68 -0.113,2.49 -0.113,4.23 0,0 0,0.38 0.07,0.42 0.08,0 0.04,0.37 -0.07,0.37 z m 6.078,-8.12 c 0.407,0.29 0.91,0.86 1.198,1.81 h -0.303 c -1.489,-1.82 -3.7,-1.25 -4.165,-2.19 1.697,0.37 2.53,0 3.097,-0.61 0.137,0.28 0.197,0.67 0.174,0.99 z m 0.502,8.23 0.151,1.93 c -0.08,0 -0.151,0.38 -0.461,0.53 -0.665,-0.64 -0.646,-2.65 0.303,-2.46 z m -9.603,-6.99 c 0.189,-0.38 0.34,-0.57 0.472,-0.79 0,-0.46 0.113,-0.87 0.227,-1.25 0.226,0.6 1.031,0.83 1.031,0.83 -0.933,0 -1.213,0.76 -1.719,1.21 z m 3.726,-2 c 0.08,0.45 0.514,0.53 0.998,0.56 -0.484,0 -0.93,0 -1.172,0.95 -0.08,-0.42 0,-0.83 -0.673,-1.02 0.541,0 0.662,-0.38 0.847,-0.49 z" />
      <ellipse
         id="Tux_k"
         cx="97.239998"
         cy="237.3"
         rx="0.79000002"
         ry="0.97000003"
         style="fill:#000000;stroke:none" />
      <ellipse
         id="Tux_l"
         cx="45.153"
         cy="250.56"
         rx="0.60000002"
         ry="0.97000003"
         style="fill:#000000;stroke:none"
         transform="matrix(0.98279,-0.18474,0.19591,0.98062,0,0)" />
      <path
         id="Tux_m"
         style="fill:#000000;stroke:none"
         d="m 95.14,237 c 0.575,0 0.82,0.41 0.926,0.71 h -1.757 c 0.151,-0.37 0.302,-0.75 0.831,-0.71 z" />
      <path
         id="Tux_n"
         style="fill:#ffa500;stroke:none"
         d="m 98.285,238.7 v 0 0 c -0.692,-0.38 -0.998,-0.38 -1.391,-0.57 -0.627,-0.38 -1.357,-0.64 -1.803,-0.57 -0.514,0 -1.047,0 -1.508,0.61 -0.416,0.38 -1.383,0.91 -1.126,1.66 0.113,0.38 0.544,0.53 0.82,0.83 0.533,0.57 0.756,1.17 1.825,1.14 0.681,0 0.866,0 1.225,-0.38 0.378,-0.38 0.574,-0.38 0.971,-0.72 0.446,-0.38 1.047,-0.38 1.266,-0.79 0.08,-0.38 -0.08,-0.25 -0.12,-0.5 0.294,-0.45 -0.11,-0.62 -0.159,-0.71 z" />
      <path
         id="Tux_o"
         style="fill:#696969;stroke:none"
         d="m 95.121,240.7 c -0.75,0.1 -1.417,-0.1 -1.821,-0.38 -0.352,-0.26 -0.545,-0.38 -0.824,-0.6 0.151,0 0.595,0.32 0.665,0.38 0.642,0.52 1.364,0.45 1.961,0.41 0.604,0 1.407,-0.41 1.811,-0.68 0.518,-0.34 0.911,-0.87 1.202,-0.6 -0.34,0 -0.621,0.39 -1.111,0.71 -0.489,0.32 -1.203,0.71 -1.883,0.76 z" />
      <path
         id="Tux_p"
         style="fill:#202020;stroke:none"
         d="m 95.473,237.98 c 0,0 0.151,0 0.189,0 0.07,0 0.113,0 0.189,0 0.08,0 0.151,0 0.151,0 0,0 -0.113,0 -0.189,0 -0.113,0 -0.227,0 -0.34,0 0,0 -0.08,0 -0.08,0 z" />
      <path
         id="Tux_q"
         style="fill:#c0c0c0;stroke:none"
         d="m 100.36,240.56 c 0.106,0 0.06,0 0.133,0.1 0.09,0.11 0.04,0.14 0.155,0.25 0.117,0.11 0.185,0 0.366,0.24 -0.324,0.1 -0.557,0.46 -1,0.59 -0.119,-0.37 -0.116,-0.7 -0.395,-1.07 -0.1,-0.17 -0.295,-0.51 -0.22,-0.59 0.25,-0.12 0.792,0.44 0.961,0.5 z m -6.936,-3.87 c 0.273,0.1 0.468,0.43 0.425,0.94 -0.124,-0.22 -0.165,-0.37 -0.236,-0.5 -0.04,-0.1 -0.136,-0.16 -0.189,-0.25 -0.06,-0.11 -0.08,-0.21 0,-0.19 z m 4.389,0.31 c 0.04,0.1 -0.08,0.18 -0.178,0.16 -0.109,-0.13 -0.102,-0.29 -0.276,-0.42 -0.06,0 -0.174,-0.17 -0.166,-0.23 0.405,0 0.562,0.35 0.62,0.49 z m -0.07,-4.39 c -0.121,-0.36 0.552,0 0.545,0.38 0,0.38 -0.604,0.78 -0.605,0.57 -0.001,-0.16 0.162,-0.65 0.06,-0.95 z" />
      <path
         id="Tux_r"
         style="fill:#ffa500;stroke:#808080;stroke-width:0.2"
         d="m 100.59,252.76 c -0.226,1.55 0.227,2.76 -0.189,4.27 -0.226,0.72 -0.506,2.04 -0.189,2.79 0.34,0.76 1.444,1.18 2.242,0.95 1.05,-0.38 1.906,-1.17 2.716,-1.85 0.42,-0.38 0.96,-0.61 1.48,-0.83 0.65,-0.38 1.82,-0.99 1.77,-1.59 -0.1,-0.87 -0.85,-0.53 -1.63,-1.63 -0.22,-0.37 -0.62,-0.68 -0.54,-1.62 0,-0.38 -0.34,-0.68 -0.66,-0.8 -0.37,0 -0.59,0.69 -0.74,0.95 -0.38,0.79 -1.731,1.02 -2.438,0.38 -0.34,-0.38 -0.189,-1.4 -0.665,-1.55 -0.824,-0.38 -1.085,0 -1.164,0.53 z" />
      <path
         id="Tux_s"
         style="fill:#ffa500;stroke:#808080;stroke-width:0.2"
         d="m 86.13,253.32 c -0.567,0 -1.595,0 -1.89,0.38 -0.662,0.53 -0.04,2.23 0,2.8 0.08,0.6 -0.662,1.47 -0.662,2.08 0,0.38 1.381,0.56 1.883,0.68 0.983,0.38 2.325,0.45 3.489,1.02 0.911,0.45 1.893,0.6 2.898,0.38 0.616,0 1.047,-0.87 0.888,-1.55 -0.377,-1.52 -1.103,-2.54 -1.93,-3.74 -0.764,-1.06 -1.735,-3.67 -2.839,-3.63 -1.104,0 -1.149,1.55 -1.837,1.58 z" />
      <path
         id="Tux_t"
         style="fill:#a9a9a9;stroke:#a9a9a9;stroke-width:0.13"
         d="m 102.27,253.55 c 0,0 0.152,1.13 1.251,1.21 0.881,0 1.321,-1.32 1.321,-1.32 -0.52,0.94 -1.986,1.09 -2.572,0 z" />
      <path
         id="Tux_u"
         style="fill:#808080;stroke:none"
         d="m 100.26,257.94 c -0.113,0 -0.4,2.34 0.571,2.6 0.533,0 1.092,0.38 1.625,0.38 1.058,-0.38 2.989,-2.19 2.989,-2.19 -0.89,0.57 -2.928,1.74 -4.092,1.4 -0.821,-0.38 -1.146,-1.06 -1.093,-2.04 z m -8.009,0 c 0.824,0.83 0.586,2.6 -0.381,2.75 -0.911,0 -1.909,0.38 -2.899,-0.37 -0.672,-0.38 -2.158,-0.8 -2.158,-0.8 1.512,0 3.303,0.72 4.569,0.38 0.575,0 1.221,-1.06 0.869,-2.04 z" />
      <path
         id="Tux_v"
         style="fill:#696969;stroke:none"
         d="m 94.577,237.84 c 0,-0.1 -0.212,0 -0.306,0.1 -0.09,0 -0.337,0.11 -0.261,0.24 0.07,0.13 0.177,-0.1 0.302,-0.12 0.11,0 0.257,-0.1 0.261,-0.18 z m 0.839,0 c 0.07,0 0.17,0 0.299,0 0.223,0 0.317,0.1 0.298,0.25 -0.04,0.31 -0.257,0 -0.383,0 -0.102,0 -0.359,-0.2 -0.215,-0.24 z" />
    </g>
    <use
       id="S_kb6l"
       xlink:href="#S_kb6b"
       transform="translate(556)"
       x="0"
       y="0"
       width="1"
       height="1" />
    <!--  Menu key   -->
    <g
       id="S_kb6m">
      <rect
         id="Menu-1"
         style="fill:#d2cfcf;stroke:#000000;stroke-width:1;stroke-linecap:round;stroke-linejoin:round"
         x="694"
         y="236"
         width="16"
         height="20" />
      <path
         id="Menu-2"
         style="fill:none;stroke:#000000;stroke-width:4;stroke-linecap:square;stroke-linejoin:miter"
         d="m 695.5,237 h 13 m -13,5 h 13" />
      <path
         id="Menu-3"
         style="fill:none;stroke:#000000;stroke-width:2;stroke-linecap:square;stroke-linejoin:miter"
         d="m 697,245 h 10 m -10,4 h 10 m -10,4 h 10" />
      <path
         id="Menu-4"
         style="fill:none;stroke:#d2cfcf;stroke-width:2;stroke-linecap:square;stroke-linejoin:miter"
         d="m 698,241 h 10" />
      <path
         id="Menu-arrow"
         style="fill:#d2cfcf;stroke:#000000;stroke-width:1.4;stroke-linecap:butt;stroke-linejoin:round"
         d="m 710,253 2,-2 4,4 2,-2 -4,-4 2,-2 -11,-5 z" />
    </g>
    <!--	Backspace	 -->
    <path
       id="S_kb2n"
       style="fill:none;stroke:#000000;stroke-width:2;marker-end:url(#TriangleOutM)"
       d="M 742,30 H 722" />
    <!-- ========	 Alternates signs	======== -->
    <g
       inkscape:groupmode="layer"
       id="alternative_signs"
       inkscape:label="alternative signs">
      <!-- Tabulations  -->
      <path
         id="S_kb3a-l1"
         style="fill:none;stroke:#000000;stroke-width:2;marker-end:url(#TriangleOutM)"
         d="M -42,76 H -62" />
      <path
         id="S_kb3a-l2"
         style="fill:none;stroke:#000000;stroke-width:2"
         d="M -68,70 V 82" />
      <path
         id="S_kb3a-r1"
         style="fill:none;stroke:#000000;stroke-width:2;marker-end:url(#TriangleOutM)"
         d="m -68,92 h 20" />
      <path
         id="S_kb3a-r2"
         style="fill:none;stroke:#000000;stroke-width:2"
         d="M -42,86 V 98" />
      <!-- Shift  -->
      <path
         id="S_kb5a"
         style="fill:none;stroke:#000000;stroke-width:2"
         d="m 18,172 -8,8 h 4 v 6 h 8 v -6 h 4 z" />
      <use
         id="S_kb5n"
         xlink:href="#S_kb5a"
         transform="translate(664,12)"
         x="0"
         y="0"
         width="1"
         height="1" />
      <!-- Enter  -->
      <path
         id="S_kb3n"
         style="fill:none;stroke:#000000;stroke-width:2;marker-end:url(#TriangleOutM)"
         d="m 788,128 v 8 h -18" />
      <!-- Caps Lock  -->
      <g
         id="S_kb4a">
        <rect
           id="CapsLock-1"
           x="14"
           y="134"
           width="18"
           height="14"
           ry="1"
           rx="1"
           style="fill:none;stroke:#000000;stroke-width:1.6" />
        <path
           id="CapsLock-2"
           style="fill:none;stroke:#000000;stroke-width:1.4"
           d="m 16,134 v -3 a 7,6 0 1 1 14,0 v 3 m -12,0 v -3 a 5,4 0 1 1 10,0 v 3" />
        <ellipse
           id="CapsLock-3"
           cx="23"
           cy="139"
           rx="1"
           ry="2"
           style="fill:none;stroke:#000000;stroke-width:1.2" />
      </g>
    </g>
  </g>
  <!-- ========	 Inscriptions layer	======== -->
  <g
     inkscape:groupmode="layer"
     id="fr-fr"
     inkscape:label="incriptions"
     sodipodi:insensitive="true">
    <g
       id="g2297"
       style="fill:#cccccc">
      <g
         id="T_digits"
         style="fill:#cccccc">
        <text
           id="T_kb2b2"
           x="72"
           y="26"
           style="line-height:0%;fill:#cccccc">1</text>
        <text
           id="T_kb2c2"
           x="126"
           y="26"
           style="line-height:0%;fill:#cccccc">2</text>
        <text
           id="T_kb2d2"
           x="180"
           y="26"
           style="line-height:0%;fill:#cccccc">3</text>
        <text
           id="T_kb2e2"
           x="234"
           y="26"
           style="line-height:0%;fill:#cccccc">4</text>
        <text
           id="T_kb2f2"
           x="288"
           y="26"
           style="line-height:0%;fill:#cccccc">5</text>
        <text
           id="T_kb2g2"
           x="342"
           y="26"
           style="line-height:0%;fill:#cccccc">6</text>
        <text
           id="T_kb2h2"
           x="396"
           y="26"
           style="line-height:0%;fill:#cccccc">7</text>
        <text
           id="T_kb2i2"
           x="450"
           y="26"
           style="line-height:0%;fill:#cccccc">8</text>
        <text
           id="T_kb2k2"
           x="504"
           y="26"
           style="line-height:0%;fill:#cccccc">9</text>
        <text
           id="T_kb2l2"
           x="558"
           y="26"
           style="line-height:0%;fill:#cccccc">0</text>
      </g>
      <g
         id="T_stdspecial"
         style="fill:#cccccc">
        <text
           id="T_kb2a1"
           x="18"
           y="46"
           style="line-height:0%;fill:#cccccc">²</text>
        <text
           id="T_kb2m2"
           x="612"
           y="26"
           style="line-height:0%;fill:#cccccc">°</text>
        <text
           id="T_kb2n2"
           x="666"
           y="26"
           style="line-height:0%;fill:#cccccc">+</text>
        <text
           id="O_kb3l2"
           x="638"
           y="81"
           class="O_DeadKey"
           style="line-height:0%;fill:#cccccc">◌</text>
        <text
           id="T_kb3m2"
           x="692"
           y="81"
           style="line-height:0%;fill:#cccccc">£</text>
        <text
           id="T_kb4l2"
           x="654"
           y="135"
           style="line-height:0%;fill:#cccccc">%</text>
        <text
           id="T_kb4m2"
           x="708"
           y="135"
           style="line-height:0%;fill:#cccccc">µ</text>
        <text
           id="T_kb5b1"
           x="80"
           y="208"
           style="line-height:0%;fill:#cccccc">&lt;</text>
        <text
           id="T_kb5b2"
           x="80"
           y="186"
           style="line-height:0%;fill:#cccccc">&gt;</text>
        <text
           id="T_kb5i2"
           x="458"
           y="188"
           style="line-height:0%;fill:#cccccc">?</text>
        <text
           id="T_kb5j2"
           x="512"
           y="186"
           style="line-height:0%;fill:#cccccc">.</text>
        <text
           id="T_kb5k2"
           x="566"
           y="186"
           style="line-height:0%;fill:#cccccc">/</text>
        <text
           id="T_kb5l2"
           x="620"
           y="186"
           style="line-height:0%;fill:#cccccc">§</text>
      </g>
      <g
         id="T_stdletters"
         style="fill:#cccccc">
        <text
           id="T_kb3b"
           x="98"
           y="81"
           style="line-height:0%;fill:#cccccc">A</text>
        <text
           id="T_kb3c"
           x="152"
           y="81"
           style="line-height:0%;fill:#cccccc">Z</text>
        <text
           id="T_kb3d"
           x="206"
           y="81"
           style="line-height:0%;fill:#cccccc">E</text>
        <text
           id="T_kb3e"
           x="260"
           y="81"
           style="line-height:0%;fill:#cccccc">R</text>
        <text
           id="T_kb3f"
           x="314"
           y="81"
           style="line-height:0%;fill:#cccccc">T</text>
        <text
           id="T_kb3g"
           x="368"
           y="81"
           style="line-height:0%;fill:#cccccc">Y</text>
        <text
           id="T_kb3h"
           x="422"
           y="81"
           style="line-height:0%;fill:#cccccc">U</text>
        <text
           id="T_kb3i"
           x="476"
           y="81"
           style="line-height:0%;fill:#cccccc">I</text>
        <text
           id="T_kb3j"
           x="530"
           y="81"
           style="line-height:0%;fill:#cccccc">O</text>
        <text
           id="T_kb3k"
           x="584"
           y="81"
           style="line-height:0%;fill:#cccccc">P</text>
        <text
           id="T_kb4b"
           x="114"
           y="135"
           style="line-height:0%;fill:#cccccc">Q</text>
        <text
           id="T_kb4c"
           x="168"
           y="135"
           style="line-height:0%;fill:#cccccc">S</text>
        <text
           id="T_kb4d"
           x="222"
           y="135"
           style="line-height:0%;fill:#cccccc">D</text>
        <text
           id="T_kb4e"
           x="276"
           y="135"
           style="line-height:0%;fill:#cccccc">F</text>
        <text
           id="T_kb4f"
           x="330"
           y="135"
           style="line-height:0%;fill:#cccccc">G</text>
        <text
           id="T_kb4g"
           x="384"
           y="135"
           style="line-height:0%;fill:#cccccc">H</text>
        <text
           id="T_kb4h"
           x="438"
           y="135"
           style="line-height:0%;fill:#cccccc">J</text>
        <text
           id="T_kb4i"
           x="492"
           y="135"
           style="line-height:0%;fill:#cccccc">K</text>
        <text
           id="T_kb4j"
           x="546"
           y="135"
           style="line-height:0%;fill:#cccccc">L</text>
        <text
           id="T_kb4k"
           x="600"
           y="135"
           style="line-height:0%;fill:#cccccc">M</text>
        <text
           id="T_kb5c"
           x="134"
           y="189"
           style="line-height:0%;fill:#cccccc">W</text>
        <text
           id="T_kb5d"
           x="188"
           y="189"
           style="line-height:0%;fill:#cccccc">X</text>
        <text
           id="T_kb5e"
           x="242"
           y="189"
           style="line-height:0%;fill:#cccccc">C</text>
        <text
           id="T_kb5f"
           x="296"
           y="189"
           style="line-height:0%;fill:#cccccc">V</text>
        <text
           id="T_kb5g"
           x="350"
           y="189"
           style="line-height:0%;fill:#cccccc">B</text>
        <text
           id="T_kb5h"
           x="404"
           y="189"
           style="line-height:0%;fill:#cccccc">N</text>
      </g>
    </g>
    <g
       id="T_others">
      <text
         id="T_kb6a"
         x="10"
         y="252"
         style="line-height:0%">Ctrl</text>
      <text
         id="T_kb6c"
         x="138"
         y="252"
         style="line-height:0%">Alt</text>
      <text
         id="T_kb6k"
         x="568"
         y="252"
         style="line-height:0%">Alt Gr</text>
      <text
         id="T_kb6n"
         x="750"
         y="252"
         style="line-height:0%">Ctrl</text>
    </g>
    <!-- ========	 alternates inscriptions	======== -->
    <g
       inkscape:groupmode="layer"
       id="T_alterninsc"
       inkscape:label="alternative inscriptions">
      <text
         id="T_kb2Oa"
         x="752"
         y="26"
         style="line-height:0%">Suppr</text>
      <text
         id="T_kb2Ob"
         x="752"
         y="44"
         style="line-height:0%">arrière</text>
      <text
         id="T_kb3A"
         x="10.023073"
         y="81.983612"
         style="font-size:21.8756px;line-height:0%;stroke-width:1.56254">Tab</text>
      <text
         id="T_kb3N"
         x="750"
         y="90"
         style="line-height:0%">Entrée</text>
      <text
         id="T_kb5M"
         x="700"
         y="198"
         style="line-height:0%">Niveau 2</text>
      <!-- Linux -->
    </g>
    <!-- ========		Linux Key with AltGr	 ======== -->
    <g
       inkscape:groupmode="layer"
       id="linux_inscriptions"
       inkscape:label="linux inscriptions">
      <!-- ======== Linux Key with AltGr & Maj	======== -->
    </g>
    <g
       id="keys" />
  </g>
  <g
     inkscape:groupmode="layer"
     id="layer1"
     inkscape:label="deco"
     sodipodi:insensitive="true">
    <rect
       style="display:inline;opacity:0.5;fill:none;-inkscape-stroke:none;stop-color:#000000"
       id="ke-2"
       width="48"
       height="48"
       x="193.5"
       y="60.499996" />
    <rect
       style="display:inline;opacity:0.5;fill:none;-inkscape-stroke:none;stop-color:#000000"
       id="ka-7"
       width="48"
       height="48"
       x="101.5"
       y="114.5" />
    <rect
       style="display:inline;opacity:0.5;fill:none;-inkscape-stroke:none;stop-color:#000000"
       id="ks-0"
       width="48"
       height="48"
       x="155.5"
       y="114.5" />
    <rect
       style="display:inline;opacity:0.5;fill:none;-inkscape-stroke:none;stop-color:#000000"
       id="kd-9"
       width="48"
       height="48"
       x="209.5"
       y="114.5" />
    <rect
       style="display:inline;opacity:0.5;fill:none;-inkscape-stroke:none;stop-color:#000000"
       id="kf-3"
       width="48"
       height="48"
       x="263.5"
       y="114.5" />
    <path
       id="ke-6"
       style="display:inline;opacity:1;fill:none;stroke:#e11d48;stroke-width:2;stroke-linejoin:round;stroke-miterlimit:4;stroke-dasharray:none;stop-color:#000000"
       d="m 191.91777,60.082235 c 0,17.33333 0,34.666667 0,51.999995 -30.66667,0 -61.33333,0 -92.000005,0 0,17.33333 0,34.66667 0,52 71.333335,0 142.666675,0 214.000005,0 0,-17.33333 0,-34.66667 0,-52 -23.33333,0 -46.66667,0 -70,0 0,-17.999995 0,-35.999995 0,-53.999995 -17.33333,0 -34.66667,0 -52,0 0,0.66667 0,1.33333 0,2 z" />
    <path
       id="path1784"
       style="display:inline;opacity:1;fill:none;stroke:#e11d48;stroke-width:2;stroke-linejoin:round;stroke-miterlimit:4;stroke-dasharray:none;stop-color:#000000"
       d="m 461.82892,60.5 v 52 h -38 v 52 h 214 v -52 h -124 v -54 h -52 z"
       sodipodi:nodetypes="cccccccccc" />
  </g>
  <g
     inkscape:groupmode="layer"
     id="key-slots"
     inkscape:label="key-slots"
     style="display:inline">
    <rect
       style="opacity:0.5;fill:none;-inkscape-stroke:none;stop-color:#000000"
       id="kbackquote"
       width="48"
       height="48"
       x="6"
       y="6" />
    <rect
       style="opacity:0.5;fill:none;-inkscape-stroke:none;stop-color:#000000"
       id="k1"
       width="48"
       height="48"
       x="60"
       y="6" />
    <rect
       style="opacity:0.5;fill:none;-inkscape-stroke:none;stop-color:#000000"
       id="k2"
       width="48"
       height="48"
       x="114.00001"
       y="6" />
    <rect
       style="opacity:0.5;fill:none;-inkscape-stroke:none;stop-color:#000000"
       id="k3"
       width="48"
       height="48"
       x="168"
       y="6" />
    <rect
       style="opacity:0.5;fill:none;-inkscape-stroke:none;stop-color:#000000"
       id="k4"
       width="48"
       height="48"
       x="222"
       y="6" />
    <rect
       style="opacity:0.5;fill:none;-inkscape-stroke:none;stop-color:#000000"
       id="k5"
       width="48"
       height="48"
       x="276"
       y="6" />
    <rect
       style="opacity:0.5;fill:none;-inkscape-stroke:none;stop-color:#000000"
       id="k6"
       width="48"
       height="48"
       x="330"
       y="6" />
    <rect
       style="opacity:0.5;fill:none;-inkscape-stroke:none;stop-color:#000000"
       id="k7"
       width="48"
       height="48"
       x="384"
       y="6" />
    <rect
       style="opacity:0.5;fill:none;-inkscape-stroke:none;stop-color:#000000"
       id="k8"
       width="48"
       height="48"
       x="438"
       y="6" />
    <rect
       style="opacity:0.5;fill:none;-inkscape-stroke:none;stop-color:#000000"
       id="k9"
       width="48"
       height="48"
       x="492"
       y="6" />
    <rect
       style="opacity:0.5;fill:none;-inkscape-stroke:none;stop-color:#000000"
       id="k0"
       width="48"
       height="48"
       x="546"
       y="6" />
    <rect
       style="display:inline;opacity:0.5;fill:none;-inkscape-stroke:none;stop-color:#000000"
       id="kdash"
       width="48"
       height="48"
       x="600"
       y="6" />
    <rect
       style="opacity:0.5;fill:none;-inkscape-stroke:none;stop-color:#000000"
       id="kq"
       width="48"
       height="48"
       x="86"
       y="59.999996" />
    <rect
       style="display:inline;opacity:0.5;fill:none;-inkscape-stroke:none;stop-color:#000000"
       id="ktab"
       width="48"
       height="48"
       x="32"
       y="60" />
    <rect
       style="display:inline;opacity:0.5;fill:none;-inkscape-stroke:none;stop-color:#000000"
       id="kcaps"
       width="48"
       height="48"
       x="42"
       y="114" />
    <rect
       style="display:inline;opacity:0.5;fill:none;-inkscape-stroke:none;stop-color:#000000"
       id="kshift"
       width="48"
       height="48"
       x="14"
       y="168" />
    <rect
       style="opacity:0.5;fill:none;-inkscape-stroke:none;stop-color:#000000"
       id="kw"
       width="48"
       height="48"
       x="140"
       y="59.999996" />
    <rect
       style="opacity:0.5;fill:none;-inkscape-stroke:none;stop-color:#000000"
       id="ke"
       width="48"
       height="48"
       x="194"
       y="59.999996" />
    <rect
       style="opacity:0.5;fill:none;-inkscape-stroke:none;stop-color:#000000"
       id="kr"
       width="48"
       height="48"
       x="248"
       y="59.999996" />
    <rect
       style="opacity:0.5;fill:none;-inkscape-stroke:none;stop-color:#000000"
       id="kt"
       width="48"
       height="48"
       x="302"
       y="59.999996" />
    <rect
       style="opacity:0.5;fill:none;-inkscape-stroke:none;stop-color:#000000"
       id="ky"
       width="48"
       height="48"
       x="356"
       y="59.999996" />
    <rect
       style="opacity:0.5;fill:none;-inkscape-stroke:none;stop-color:#000000"
       id="ku"
       width="48"
       height="48"
       x="410"
       y="59.999996" />
    <rect
       style="opacity:0.5;fill:none;-inkscape-stroke:none;stop-color:#000000"
       id="ki"
       width="48"
       height="48"
       x="464"
       y="59.999996" />
    <rect
       style="opacity:0.5;fill:none;-inkscape-stroke:none;stop-color:#000000"
       id="ko"
       width="48"
       height="48"
       x="518"
       y="59.999996" />
    <rect
       style="opacity:0.5;fill:none;-inkscape-stroke:none;stop-color:#000000"
       id="kp"
       width="48"
       height="48"
       x="572"
       y="59.999996" />
    <rect
       style="display:inline;opacity:0.5;fill:none;-inkscape-stroke:none;stop-color:#000000"
       id="kquote"
       width="48"
       height="48"
       x="642"
       y="114" />
    <rect
       style="display:inline;opacity:0.5;fill:none;-inkscape-stroke:none;stop-color:#000000"
       id="kquotenot"
       width="48"
       height="48"
       x="696"
       y="114" />
    <rect
       style="opacity:0.5;fill:none;-inkscape-stroke:none;stop-color:#000000"
       id="ka"
       width="48"
       height="48"
       x="102"
       y="114" />
    <rect
       style="opacity:0.5;fill:none;-inkscape-stroke:none;stop-color:#000000"
       id="ks"
       width="48"
       height="48"
       x="156"
       y="114" />
    <rect
       style="opacity:0.5;fill:none;-inkscape-stroke:none;stop-color:#000000"
       id="kd"
       width="48"
       height="48"
       x="210"
       y="114" />
    <rect
       style="opacity:0.5;fill:none;-inkscape-stroke:none;stop-color:#000000"
       id="kf"
       width="48"
       height="48"
       x="264"
       y="114" />
    <rect
       style="opacity:0.5;fill:none;-inkscape-stroke:none;stop-color:#000000"
       id="kg"
       width="48"
       height="48"
       x="318"
       y="114" />
    <rect
       style="opacity:0.5;fill:none;-inkscape-stroke:none;stop-color:#000000"
       id="kh"
       width="48"
       height="48"
       x="372"
       y="114" />
    <rect
       style="opacity:0.5;fill:none;-inkscape-stroke:none;stop-color:#000000"
       id="kj"
       width="48"
       height="48"
       x="426"
       y="114" />
    <rect
       style="opacity:0.5;fill:none;-inkscape-stroke:none;stop-color:#000000"
       id="kk"
       width="48"
       height="48"
       x="480"
       y="114" />
    <rect
       style="opacity:0.5;fill:none;-inkscape-stroke:none;stop-color:#000000"
       id="kl"
       width="48"
       height="48"
       x="534"
       y="114" />
    <rect
       style="opacity:0.5;fill:none;-inkscape-stroke:none;stop-color:#000000"
       id="ksemicolon"
       width="48"
       height="48"
       x="588"
       y="114" />
    <rect
       style="display:inline;opacity:0.5;fill:none;-inkscape-stroke:none;stop-color:#000000"
       id="klbracket"
       width="48"
       height="48"
       x="626"
       y="60" />
    <rect
       style="display:inline;opacity:0.5;fill:none;-inkscape-stroke:none;stop-color:#000000"
       id="krbracket"
       width="48"
       height="48"
       x="680"
       y="60" />
    <rect
       style="opacity:0.5;fill:none;-inkscape-stroke:none;stop-color:#000000"
       id="kbackslash"
       width="48"
       height="48"
       x="68"
       y="168" />
    <rect
       style="opacity:0.5;fill:none;-inkscape-stroke:none;stop-color:#000000"
       id="kz"
       width="48"
       height="48"
       x="122.00001"
       y="168"
       inkscape:label="" />
    <rect
       style="opacity:0.5;fill:none;-inkscape-stroke:none;stop-color:#000000"
       id="kx"
       width="48"
       height="48"
       x="176"
       y="168" />
    <rect
       style="opacity:0.5;fill:none;-inkscape-stroke:none;stop-color:#000000"
       id="kc"
       width="48"
       height="48"
       x="230"
       y="168" />
    <rect
       style="opacity:0.5;fill:none;-inkscape-stroke:none;stop-color:#000000"
       id="kv"
       width="48"
       height="48"
       x="284"
       y="168" />
    <rect
       style="opacity:0.5;fill:none;-inkscape-stroke:none;stop-color:#000000"
       id="kb"
       width="48"
       height="48"
       x="338"
       y="168" />
    <rect
       style="display:inline;opacity:0.5;fill:none;-inkscape-stroke:none;stop-color:#000000"
       id="kspc"
       width="48"
       height="48"
       x="352"
       y="222" />
    <rect
       style="opacity:0.5;fill:none;-inkscape-stroke:none;stop-color:#000000"
       id="kn"
       width="48"
       height="48"
       x="392"
       y="168" />
    <rect
       style="opacity:0.5;fill:none;-inkscape-stroke:none;stop-color:#000000"
       id="km"
       width="48"
       height="48"
       x="446"
       y="168" />
    <rect
       style="opacity:0.5;fill:none;-inkscape-stroke:none;stop-color:#000000"
       id="klt"
       width="48"
       height="48"
       x="500"
       y="168" />
    <rect
       style="opacity:0.5;fill:none;-inkscape-stroke:none;stop-color:#000000"
       id="kgt"
       width="48"
       height="48"
       x="554"
       y="168" />
    <rect
       style="display:inline;opacity:0.5;fill:none;-inkscape-stroke:none;stop-color:#000000"
       id="kslash"
       width="48"
       height="48"
       x="608"
       y="168" />
    <rect
       style="display:inline;opacity:0.5;fill:none;-inkscape-stroke:none;stop-color:#000000"
       id="kequals"
       width="48"
       height="48"
       x="654"
       y="6" />
  </g>
  <metadata
     id="metadata1150">
    <rdf:RDF>
      <cc:Work
         rdf:about="">
        <dc:title>KB_France linux</dc:title>
      </cc:Work>
    </rdf:RDF>
  </metadata>
</svg>
